<svg xmlns="http://www.w3.org/2000/svg" viewBox="0 0 481.25 248"><defs><style>.cls-1{fill:none;stroke:#50d890;stroke-miterlimit:10;stroke-width:17px;}.cls-2{fill:#4f98ca;}</style></defs><title>Recurso 4</title><g id="Capa_2" data-name="Capa 2"><g id="Capa_1-2" data-name="Capa 1"><path class="cls-1" d="M252.73,210.36a565.55,565.55,0,0,0,20.32-93.2A572.23,572.23,0,0,0,276.54,3.21"/><path class="cls-1" d="M256.4,214.88a360.75,360.75,0,0,0,32.35-77.44A371.56,371.56,0,0,0,302.18,11.6"/><path class="cls-1" d="M327.21,24.51c-4,22.29-8.93,48.81-14.65,78.73-6,31.47-8.92,44.42-12.8,55-.82,2.22-2,5.25-3.69,8.9-15.68,34.42-42.84,52.43-41.81,53.88s28.81-23.3,68.67-41.62a238.76,238.76,0,0,1,49.45-16.78,212,212,0,0,1,72-2.58"/><path class="cls-1" d="M453,185.84a368.94,368.94,0,0,0-92.79,3.87,374.49,374.49,0,0,0-101.94,32.92"/><path class="cls-1" d="M454.79,213a815.23,815.23,0,0,0-119.65.64c-25.84,2-50.1,5.2-72.64,9"/><path class="cls-1" d="M202.68,209.65a566.74,566.74,0,0,1-20.94-93.06A571.58,571.58,0,0,1,177.52,2.67"/><path class="cls-1" d="M199,214.19A360.06,360.06,0,0,1,166.19,137,371.62,371.62,0,0,1,151.94,11.26"/><path class="cls-1" d="M127,24.34c4.19,22.26,9.25,48.74,15.17,78.62,6.21,31.42,9.2,44.36,13.15,54.9.84,2.25,2.06,5.25,3.74,8.87,15.8,34.06,42.53,51.5,41.49,53s-28.63-22.67-68.27-40.54a238.17,238.17,0,0,0-49.55-16.42,211.74,211.74,0,0,0-72-2.06"/><path class="cls-1" d="M2.29,186.58a369.07,369.07,0,0,1,92.81,3.2A374.26,374.26,0,0,1,197.26,222"/><path class="cls-1" d="M.64,213.7a816.67,816.67,0,0,1,119.65-.23c25.85,1.86,50.13,4.84,72.69,8.51"/><path class="cls-2" d="M193.25,248V221H.25v26H200.36a9.62,9.62,0,0,1-.06,1Z"/><path class="cls-2" d="M221.25,215.41V0h-28V220h18.3A27,27,0,0,1,221.25,215.41Z"/><path class="cls-2" d="M200.3,248a30,30,0,0,1-.27-3.93A28.92,28.92,0,0,1,211.22,221h-18v27Z"/><path class="cls-2" d="M253.15,248h7.1v-1h-7C253.24,247.33,253.2,247.67,253.15,248Z"/><path class="cls-2" d="M261.25,220V0h-28V216.37a26.65,26.65,0,0,1,8.33,3.63Z"/><rect class="cls-2" x="260.25" y="219" width="221" height="28"/><path class="cls-2" d="M240.58,219a29.34,29.34,0,0,1,12.78,24.49,31.21,31.21,0,0,1-.21,3.51h7.1V219Z"/></g></g></svg>